# xmcd CD database file
#
# Track frame offsets:
#	150
#	20962
#	42040
#	62285
#	80365
#	101187
#	122410
#	137887
#	159895
#	179687
#	199872
#
# Disc length: 2999 seconds
#
# Revision: 3
# Processed by: cddbd v1.5PL3 Copyright (c) Steve Scherf et al.
# Submitted via: CDex 1.51
#
DISCID=900bb50b
DTITLE=秋山久美 - プライマリー
DYEAR=1997
DGENRE=Pop
TTITLE0=WILD BLOOD
TTITLE1=RUNNER
TTITLE2=遅れて来た勇者たち
TTITLE3=True Love
TTITLE4=純白のコート
TTITLE5=Weather Report
TTITLE6=二十世紀が終わっても(New Mix)
TTITLE7=三度目の夏<ラストチャンス>(New Version)
TTITLE8=フワフワ
TTITLE9=Proceed
TTITLE10=PERSONA
EXTD=YEAR: 1997
EXTT0=
EXTT1=
EXTT2=
EXTT3=
EXTT4=
EXTT5=
EXTT6=
EXTT7=
EXTT8=
EXTT9=
EXTT10=
PLAYORDER=
